<?xml version="1.0" standalone="no"?>
<!DOCTYPE svg PUBLIC "-//W3C//DTD SVG 20010904//EN"
 "http://www.w3.org/TR/2001/REC-SVG-20010904/DTD/svg10.dtd">
<svg version="1.0" xmlns="http://www.w3.org/2000/svg"
 width="693.000000pt" height="411.000000pt" viewBox="0 0 693.000000 411.000000"
 preserveAspectRatio="xMidYMid meet">

<g transform="translate(0.000000,411.000000) scale(0.100000,-0.100000)"
fill="#0284c7" stroke="none">
<path d="M3120 4102 c-54 -7 -90 -23 -90 -42 0 -27 32 -34 155 -31 99 1 113
-1 145 -21 l35 -23 -130 -7 c-152 -9 -248 -27 -365 -69 -166 -60 -308 -173
-361 -288 -17 -35 -32 -53 -53 -61 -16 -5 -37 -17 -46 -25 -14 -12 -21 -12
-60 1 -83 29 -190 -12 -190 -72 0 -85 87 -135 248 -142 l104 -5 48 -48 c63
-63 130 -84 240 -75 62 6 79 4 89 -8 30 -36 96 -49 206 -42 l105 7 12 -25 c8
-19 8 -36 1 -59 -8 -28 -371 -567 -407 -605 -10 -10 -15 -1 -26 45 -18 85 -84
279 -129 383 -96 222 -173 303 -314 330 -128 25 -239 -50 -613 -411 -222 -216
-351 -301 -597 -395 -215 -82 -410 -120 -698 -134 -288 -15 -383 -38 -419
-102 -12 -23 -12 -30 0 -54 20 -38 90 -80 185 -111 76 -26 91 -27 280 -28 131
0 223 5 267 14 76 15 108 10 88 -14 -16 -19 -110 -49 -267 -84 -181 -41 -224
-66 -226 -134 -3 -114 150 -165 411 -138 185 19 310 60 422 137 46 32 90 44
90 26 0 -14 -82 -87 -153 -137 -195 -136 -171 -254 52 -255 92 0 166 16 286
62 219 83 437 229 573 382 29 32 111 157 182 277 134 225 160 255 224 266 77
12 130 -26 182 -129 l35 -69 -69 -82 c-38 -45 -131 -170 -207 -277 -151 -213
-211 -290 -352 -452 -97 -111 -144 -153 -203 -183 -33 -17 -53 -35 -45 -43 2
-2 76 -10 164 -18 267 -23 463 -73 601 -152 46 -26 65 -43 65 -57 0 -18 -8
-20 -92 -23 -66 -2 -101 1 -121 12 -15 8 -98 29 -183 46 -325 67 -553 46 -595
-56 -13 -30 -13 -38 0 -63 47 -89 295 -151 609 -151 l166 0 95 -61 c160 -102
143 -129 -109 -165 -386 -56 -1025 84 -1233 271 -56 50 -79 92 -87 158 -4 26
-10 47 -15 47 -4 0 -28 -17 -53 -38 -99 -83 -143 -157 -153 -259 -15 -150 113
-302 362 -429 276 -140 626 -201 1007 -176 407 27 640 97 780 236 68 68 100
141 105 236 6 117 -20 175 -121 270 -222 208 -220 206 -215 247 3 21 52 148
108 283 144 346 140 338 157 344 9 4 44 -13 82 -37 124 -82 241 -119 376 -121
156 -1 203 28 59 37 -85 5 -124 21 -124 52 0 28 34 38 146 44 63 3 115 10 117
16 1 6 -46 12 -118 15 -66 3 -126 9 -132 13 -20 13 -15 55 6 67 11 5 65 10
120 10 96 0 126 9 104 31 -5 5 -54 12 -109 16 -54 3 -105 10 -111 16 -34 26 8
77 65 77 20 0 43 4 51 9 24 16 1 31 -47 31 -115 1 -248 36 -305 83 l-28 22
110 282 c124 317 132 336 163 357 50 35 145 11 173 -44 9 -17 59 -157 112
-312 110 -326 112 -297 -19 -338 -102 -32 -112 -38 -97 -56 18 -22 -14 -51
-64 -59 -108 -17 -104 -35 7 -35 101 0 133 -10 142 -45 12 -48 -13 -59 -138
-65 -69 -3 -113 -9 -115 -16 -5 -16 45 -24 156 -24 100 0 121 -7 121 -42 0
-31 -39 -43 -140 -41 -98 2 -155 -12 -115 -28 11 -4 57 -8 101 -8 60 -1 85 -5
94 -16 20 -24 44 -18 161 41 61 30 120 54 131 52 17 -2 39 -51 126 -278 139
-366 133 -341 99 -402 -16 -28 -26 -53 -23 -56 4 -3 59 11 124 32 294 93 603
118 870 71 127 -22 133 -34 35 -64 -59 -17 -94 -20 -268 -20 -176 1 -214 -2
-315 -24 -197 -42 -290 -91 -306 -160 -5 -23 0 -33 30 -62 103 -97 427 -114
681 -35 85 26 155 57 155 70 0 13 -3 12 -125 -5 -55 -8 -146 -15 -203 -15 -99
0 -104 1 -127 26 -53 57 -24 85 109 109 230 40 762 60 831 31 48 -21 70 -57
56 -96 -31 -92 -187 -215 -351 -278 -148 -57 -364 -94 -667 -113 -374 -24
-639 33 -783 167 -48 45 -49 45 -61 23 -19 -37 -4 -132 33 -201 73 -137 337
-278 623 -330 111 -21 540 -17 695 5 257 37 406 79 565 158 178 88 293 205
331 337 74 254 -166 450 -681 557 -231 48 -288 78 -399 207 -147 170 -184 221
-540 737 l-155 225 41 49 c79 93 144 99 228 21 41 -38 57 -66 110 -188 34 -79
82 -181 108 -227 151 -270 558 -504 913 -526 82 -5 101 -3 142 15 52 23 72 57
58 95 -10 25 -95 107 -193 186 -38 30 -68 61 -68 68 0 29 32 23 102 -20 40
-25 96 -55 125 -66 179 -70 493 -86 607 -31 54 26 85 76 71 116 -19 54 -70 81
-224 120 -264 66 -353 126 -141 94 36 -5 139 -10 230 -10 266 0 416 42 465
132 15 29 17 41 8 60 -21 46 -87 67 -270 83 -488 43 -707 92 -936 206 -228
113 -382 241 -707 585 -132 140 -210 183 -334 185 -76 1 -121 -17 -181 -72
-77 -71 -195 -292 -276 -516 -18 -51 -36 -93 -39 -93 -3 0 -81 121 -173 269
-124 200 -167 277 -167 301 0 50 42 83 145 115 257 78 410 171 472 287 25 47
23 142 -4 193 -86 164 -366 279 -715 292 -82 3 -148 10 -148 14 0 5 11 16 25
25 22 14 44 16 133 12 118 -6 155 0 160 24 5 24 -88 51 -173 51 -88 -1 -136
-20 -197 -80 l-47 -47 -21 27 c-12 15 -43 42 -68 59 -41 28 -57 33 -132 38
-47 3 -96 4 -110 2z m57 -564 c33 -20 52 -23 138 -23 84 1 107 4 142 23 55 29
75 28 40 -3 -21 -19 -26 -30 -21 -50 7 -30 -2 -32 -30 -6 -28 26 -116 18 -123
-10 -7 -24 -20 -24 -32 0 -14 25 -98 37 -121 16 -21 -19 -33 -9 -19 16 7 15 6
21 -6 25 -8 3 -15 12 -15 20 0 18 2 18 47 -8z m836 -10 c35 -18 59 -22 137
-23 80 0 102 4 139 23 47 25 64 22 38 -6 -10 -11 -14 -26 -10 -40 6 -25 -5
-29 -21 -7 -17 22 -117 9 -124 -17 -2 -10 -8 -18 -12 -18 -4 0 -10 8 -12 18
-4 14 -19 21 -59 25 -47 6 -56 4 -68 -13 -20 -29 -34 -25 -26 8 5 24 2 30 -20
40 -25 12 -34 32 -15 32 6 0 30 -10 53 -22z m-354 -163 c28 -14 72 -28 98 -31
41 -5 57 -1 105 25 33 18 60 27 63 21 9 -15 -3 -28 -46 -51 -79 -40 -178 -35
-249 13 -34 23 -50 48 -32 48 6 0 33 -11 61 -25z"/>
<path d="M380 3133 c-110 -18 -180 -70 -180 -132 0 -46 21 -77 67 -96 19 -8
33 -20 31 -27 -2 -6 -40 -21 -84 -33 -96 -26 -134 -45 -168 -85 -30 -37 -50
-102 -41 -138 11 -43 67 -87 137 -107 75 -23 293 -26 398 -6 71 13 722 173
730 179 11 8 -310 309 -363 341 -128 76 -263 111 -417 109 -47 0 -96 -3 -110
-5z"/>
<path d="M6255 3086 c-96 -22 -171 -54 -248 -106 -86 -58 -358 -327 -336 -333
113 -32 655 -161 719 -172 113 -20 309 -19 385 0 114 30 163 81 151 158 -15
93 -72 141 -212 178 -46 12 -84 26 -84 30 0 5 14 16 31 24 52 27 69 51 69 96
0 35 -6 47 -35 75 -20 18 -52 39 -73 45 -56 18 -295 21 -367 5z"/>
</g>
</svg>
